<svg width="32" height="32" viewBox="0 0 32 32" fill="none" xmlns="http://www.w3.org/2000/svg">
  <!-- Фон -->
  <rect width="32" height="32" rx="6" fill="url(#gradient1)"/>
  
  <!-- Буква P -->
  <path d="M8 8h6c2.2 0 4 1.8 4 4s-1.8 4-4 4h-2v4h-4V8z" fill="white"/>
  <path d="M10 12h4c1.1 0 2 .9 2 2s-.9 2-2 2h-4v-4z" fill="url(#gradient2)"/>
  
  <!-- Буква L -->
  <path d="M18 8h2v12h-2V8z" fill="white"/>
  
  <!-- Буква E -->
  <path d="M22 8h6v2h-4v2h4v2h-4v2h4v2h-6V8z" fill="white"/>
  
  <!-- Буква X -->
  <path d="M30 8l-2 2-2-2h-2l2 2-2 2h2l2-2 2 2h2l-2-2 2-2h-2z" fill="white"/>
  
  <!-- Градиенты -->
  <defs>
    <linearGradient id="gradient1" x1="0%" y1="0%" x2="100%" y2="100%">
      <stop offset="0%" style="stop-color:#3b82f6;stop-opacity:1" />
      <stop offset="100%" style="stop-color:#1e40af;stop-opacity:1" />
    </linearGradient>
    <linearGradient id="gradient2" x1="0%" y1="0%" x2="100%" y2="100%">
      <stop offset="0%" style="stop-color:#f59e0b;stop-opacity:1" />
      <stop offset="100%" style="stop-color:#d97706;stop-opacity:1" />
    </linearGradient>
  </defs>
</svg> 